<?xml version="1.0" standalone="no"?>
<!DOCTYPE svg PUBLIC "-//W3C//DTD SVG 20010904//EN"
 "http://www.w3.org/TR/2001/REC-SVG-20010904/DTD/svg10.dtd">
<svg version="1.0" xmlns="http://www.w3.org/2000/svg"
 width="490.000000pt" height="490.000000pt" viewBox="0 0 490.000000 490.000000"
 preserveAspectRatio="xMidYMid meet">
<metadata>
Created by potrace 1.15, written by Peter Selinger 2001-2017
</metadata>
<g transform="translate(0.000000,490.000000) scale(0.100000,-0.100000)"
fill="#000000" stroke="none">
<path d="M2388 4782 c-26 -37 -104 -150 -174 -252 -245 -357 -552 -752 -1100
-1415 -325 -394 -387 -472 -502 -633 -217 -302 -348 -563 -403 -802 -29 -126
-37 -368 -14 -485 33 -178 110 -328 233 -457 245 -256 606 -337 930 -207 154
61 272 158 397 324 150 203 254 338 321 420 43 53 85 120 122 197 45 94 62
120 85 129 24 10 32 9 55 -8 35 -26 45 -79 38 -213 -6 -141 -20 -197 -74 -313
-25 -53 -43 -99 -40 -102 12 -13 109 -17 231 -10 l135 7 -49 96 c-59 118 -79
209 -79 364 0 95 3 118 20 146 42 68 100 32 155 -95 43 -101 97 -188 132 -210
13 -9 58 -64 100 -122 279 -386 334 -449 460 -531 341 -223 803 -169 1085 127
168 177 249 390 250 653 0 282 -81 544 -257 835 -138 228 -306 449 -708 933
-362 436 -567 693 -791 992 -170 228 -237 321 -437 614 -30 44 -58 81 -64 83
-5 1 -31 -28 -57 -65z m124 -594 c209 -312 479 -666 919 -1204 299 -365 390
-484 543 -711 158 -235 203 -331 242 -513 21 -104 24 -318 5 -405 -46 -209
-189 -391 -376 -480 -100 -48 -149 -62 -251 -71 -112 -10 -281 25 -353 73 -26
18 -26 18 74 26 253 19 422 125 516 322 106 223 90 523 -43 790 -59 117 -245
384 -557 799 -377 501 -485 650 -648 898 -68 103 -128 190 -133 193 -18 11
-33 -8 -129 -160 -130 -204 -356 -517 -669 -927 -148 -194 -301 -401 -340
-459 -285 -427 -340 -567 -330 -842 9 -211 63 -345 190 -463 101 -96 238 -144
405 -144 104 0 109 -6 34 -44 -85 -43 -166 -60 -291 -59 -96 0 -128 4 -195 26
-200 66 -352 210 -428 405 -118 305 -50 656 200 1030 82 122 298 399 579 742
387 473 628 788 844 1103 63 92 118 167 122 167 4 0 35 -42 70 -92z m29 -766
c114 -185 286 -435 502 -732 110 -151 240 -336 289 -410 100 -152 199 -345
223 -435 23 -84 30 -255 15 -342 -31 -186 -161 -342 -324 -388 -104 -30 -249
-7 -293 47 -9 11 8 13 95 13 94 0 114 3 162 26 150 70 232 206 231 384 0 220
-45 297 -526 919 -408 527 -459 591 -475 591 -8 0 -30 -22 -50 -49 -146 -202
-327 -437 -494 -641 -202 -247 -358 -464 -407 -570 -75 -159 -77 -318 -8 -463
69 -142 254 -226 428 -194 l53 10 -24 -24 c-71 -72 -248 -84 -372 -26 -117 55
-214 178 -251 317 -33 127 -13 358 42 489 55 132 246 425 534 821 180 247 343
486 444 650 108 176 94 159 115 140 10 -9 51 -69 91 -133z"/>
<path d="M2272 791 c-49 -81 -106 -200 -99 -208 14 -13 514 -10 527 3 9 9 -3
39 -50 123 l-62 111 -149 0 -149 0 -18 -29z"/>
<path d="M2175 307 c-29 -62 -81 -154 -114 -205 -34 -51 -61 -95 -61 -97 0 -8
859 -5 863 2 3 5 -44 96 -105 204 l-110 196 -127 6 c-69 4 -163 7 -209 7 l-83
0 -54 -113z"/>
</g>
</svg>
